<svg width="18" height="19" viewBox="0 0 18 19" fill="none" xmlns="http://www.w3.org/2000/svg">
    <path
        d="M7.94821 5.90529C8.9866 5.57705 9.246 3.73259 9.00625 2.69523C8.80646 1.83077 8.16733 0.919663 7.36857 1.17215C6.33019 1.50039 6.07078 3.34485 6.31053 4.38221C6.51032 5.24667 7.14945 6.15777 7.94821 5.90529ZM4.91292 6.86474C5.71168 6.61225 5.87131 5.44866 5.67152 4.5842C5.41179 3.4604 4.39318 2.01991 3.35479 2.34815C2.55603 2.60064 2.3964 3.76423 2.59619 4.62869C2.77605 5.77774 3.79466 7.21823 4.91292 6.86474ZM10.624 4.13187C9.58557 4.4601 9.22631 6.24337 9.48604 7.36717C9.66585 8.14518 10.1652 8.8222 10.884 8.59496C11.9224 8.26673 12.2817 6.48346 12.022 5.35966C11.8422 4.58165 11.263 3.92988 10.624 4.13187ZM4.29409 9.00834C4.03437 7.88455 2.87598 6.58101 1.91747 6.88399C1.19858 7.11123 1.05889 7.99024 1.2387 8.76826C1.49843 9.89205 2.65682 11.1956 3.61533 10.8926C4.33421 10.6654 4.47391 9.78636 4.29409 9.00834ZM6.81017 8.02749C5.21265 8.53247 3.69533 11.9805 4.13487 13.8823C4.33466 14.7467 4.95373 14.8293 5.59274 14.6273C6.55125 14.3244 7.1103 13.4055 7.98894 13.1278C8.7877 12.8753 9.66641 13.3396 10.545 13.0619C11.1841 12.8599 11.863 12.4598 11.6432 11.5089C11.2037 9.60707 8.40769 7.52251 6.81017 8.02749Z"
        fill="#500878" />
    <path
        d="M11.881 18.0456C11.5424 18.0456 11.2602 17.9264 11.0345 17.6879C10.8084 17.4488 10.6954 17.1506 10.6954 16.7932C10.6954 16.6409 10.6886 16.5134 10.675 16.4105C10.6614 16.3076 10.6274 16.2278 10.573 16.1711C10.5193 16.1136 10.4437 16.0745 10.3464 16.0538C10.249 16.0331 10.1282 16.0226 9.98405 16.0223C9.64545 16.0223 9.36328 15.9062 9.13754 15.6741C8.91149 15.442 8.79846 15.1471 8.79846 14.7895C8.79846 14.4318 8.91149 14.1337 9.13754 13.8953C9.36359 13.6568 9.64576 13.5374 9.98405 13.5371C10.1111 13.5371 10.2316 13.5541 10.3454 13.5882C10.4592 13.6223 10.5558 13.6734 10.6352 13.7415C10.7205 13.812 10.8193 13.8472 10.9316 13.8472C11.0438 13.8472 11.1396 13.8054 11.219 13.7219L13.2051 11.624C13.2841 11.5405 13.3298 11.4345 13.3421 11.3059C13.3544 11.1773 13.3271 11.065 13.2601 10.9688C13.2016 10.8783 13.1546 10.7746 13.1192 10.6577C13.0838 10.5408 13.0663 10.4152 13.0666 10.281C13.0666 9.92331 13.1796 9.62525 13.4057 9.3868C13.6314 9.14802 13.9136 9.02863 14.2522 9.02863C14.5908 9.02863 14.8731 9.14802 15.0991 9.3868C15.3252 9.62558 15.4381 9.92364 15.4378 10.281C15.4378 10.4333 15.4446 10.5608 15.4581 10.6637C15.4717 10.7666 15.5057 10.8464 15.5601 10.9031C15.6139 10.9606 15.6896 10.9965 15.7873 11.0109C15.885 11.0252 16.0056 11.0324 16.1491 11.0324C16.4877 11.0324 16.77 11.1518 16.9961 11.3906C17.2218 11.629 17.3347 11.9271 17.3347 12.2847C17.3347 12.6424 17.2218 12.9406 16.9961 13.1794C16.7704 13.4182 16.488 13.5374 16.1491 13.5371C16.022 13.5371 15.9031 13.5186 15.7925 13.4815C15.6818 13.4444 15.5837 13.3948 15.498 13.3327C15.4069 13.2686 15.3035 13.2414 15.1878 13.2511C15.0724 13.2607 14.9752 13.3073 14.8962 13.3908L12.9281 15.4697C12.8491 15.5532 12.8034 15.6511 12.791 15.7633C12.7787 15.8755 12.8001 15.9832 12.8551 16.0864C12.9072 16.1766 12.9556 16.2834 13.0002 16.407C13.0444 16.5302 13.0666 16.659 13.0666 16.7932C13.0666 17.1509 12.9537 17.4491 12.728 17.6879C12.5016 17.9264 12.2193 18.0456 11.881 18.0456Z"
        fill="#500878" />
</svg>