<svg width="18" height="16" viewBox="0 0 18 16" fill="none" xmlns="http://www.w3.org/2000/svg">
    <path
        d="M10.0001 6H10.5344C11.2251 7.19688 12.5188 8 14.0001 8C14.3438 8 14.6813 7.95625 15.0001 7.875V15C15.0001 15.5531 14.5532 16 14.0001 16C13.4469 16 13.0001 15.5531 13.0001 15V10.6L8.75006 14H10.5001C11.0532 14 11.5001 14.4469 11.5001 15C11.5001 15.5531 11.0532 16 10.5001 16H6.00006C4.34381 16 3.00006 14.6562 3.00006 13V6.01562C3.00006 5.5125 2.62506 5.08437 2.12506 5.02187L1.87819 4.99062C1.33131 4.92188 0.940686 4.42188 1.00944 3.875C1.07819 3.32812 1.57819 2.9375 2.12506 3.00625L2.37194 3.0375C3.87194 3.225 5.00006 4.5 5.00006 6.01562V8.68125C6.07506 7.06562 7.91256 6 10.0001 6ZM15.0001 6.82812C14.6876 6.9375 14.3501 7 14.0001 7C13.1126 7 12.3126 6.6125 11.7626 6C11.6469 5.87187 11.5438 5.73438 11.4532 5.5875C11.1657 5.125 11.0001 4.58125 11.0001 4V0.334375C11.0001 0.15 11.1469 0.003125 11.3313 0H11.3376C11.4407 0 11.5376 0.05 11.6001 0.13125V0.134375L12.0001 0.665625L12.8501 1.8L13.0001 2H15.0001L15.1501 1.8L16.0001 0.665625L16.4001 0.134375V0.13125C16.4626 0.05 16.5594 0 16.6626 0H16.6688C16.8532 0.003125 17.0001 0.15 17.0001 0.334375V4C17.0001 4.54063 16.8563 5.05 16.6063 5.4875C16.2532 6.10625 15.6813 6.5875 15.0001 6.82812ZM13.5001 4C13.5001 3.86739 13.4474 3.74021 13.3536 3.64645C13.2598 3.55268 13.1327 3.5 13.0001 3.5C12.8675 3.5 12.7403 3.55268 12.6465 3.64645C12.5527 3.74021 12.5001 3.86739 12.5001 4C12.5001 4.13261 12.5527 4.25979 12.6465 4.35355C12.7403 4.44732 12.8675 4.5 13.0001 4.5C13.1327 4.5 13.2598 4.44732 13.3536 4.35355C13.4474 4.25979 13.5001 4.13261 13.5001 4ZM15.0001 4.5C15.1327 4.5 15.2598 4.44732 15.3536 4.35355C15.4474 4.25979 15.5001 4.13261 15.5001 4C15.5001 3.86739 15.4474 3.74021 15.3536 3.64645C15.2598 3.55268 15.1327 3.5 15.0001 3.5C14.8675 3.5 14.7403 3.55268 14.6465 3.64645C14.5527 3.74021 14.5001 3.86739 14.5001 4C14.5001 4.13261 14.5527 4.25979 14.6465 4.35355C14.7403 4.44732 14.8675 4.5 15.0001 4.5Z"
        fill="#500878" />
</svg>