<svg width="18" height="16" viewBox="0 0 18 16" fill="none" xmlns="http://www.w3.org/2000/svg">
    <g clip-path="url(#clip0_7_9446)">
        <path
            d="M9.31437 6.99999L14 8.67343V15.5C14 15.6326 13.9473 15.7598 13.8536 15.8535C13.7598 15.9473 13.6326 16 13.5 16H11.5C11.3674 16 11.2402 15.9473 11.1464 15.8535C11.0527 15.7598 11 15.6326 11 15.5V12H6V15.5C6 15.6326 5.94732 15.7598 5.85355 15.8535C5.75979 15.9473 5.63261 16 5.5 16H3.5C3.36739 16 3.24021 15.9473 3.14645 15.8535C3.05268 15.7598 3 15.6326 3 15.5V8.81531C1.83875 8.40124 1 7.30187 1 5.99999C1 5.73478 1.10536 5.48042 1.29289 5.29289C1.48043 5.10535 1.73478 4.99999 2 4.99999C2.26522 4.99999 2.51957 5.10535 2.70711 5.29289C2.89464 5.48042 3 5.73478 3 5.99999C3.0005 6.26506 3.10601 6.51912 3.29344 6.70655C3.48087 6.89398 3.73494 6.9995 4 6.99999H9.31437ZM17 3.49999V4.49999C17 5.03043 16.7893 5.53913 16.4142 5.91421C16.0391 6.28928 15.5304 6.49999 15 6.49999H14V7.61187L10 6.18343V1.49999C10 1.05468 10.5381 0.831555 10.8534 1.14656L11.7059 1.99999H13.3819C13.7228 1.99999 14.1241 2.24749 14.2762 2.55281L14.5 2.99999H16.5C16.6326 2.99999 16.7598 3.05267 16.8536 3.14644C16.9473 3.24021 17 3.36738 17 3.49999ZM13.5 3.49999C13.5 3.4011 13.4707 3.30443 13.4157 3.22221C13.3608 3.13998 13.2827 3.0759 13.1913 3.03805C13.1 3.00021 12.9994 2.99031 12.9025 3.0096C12.8055 3.02889 12.7164 3.07651 12.6464 3.14644C12.5765 3.21637 12.5289 3.30546 12.5096 3.40245C12.4903 3.49944 12.5002 3.59997 12.5381 3.69133C12.5759 3.7827 12.64 3.86079 12.7222 3.91573C12.8044 3.97067 12.9011 3.99999 13 3.99999C13.1326 3.99999 13.2598 3.94731 13.3536 3.85355C13.4473 3.75978 13.5 3.6326 13.5 3.49999Z"
            fill="#500878" />
    </g>
    <defs>
        <clipPath id="clip0_7_9446">
            <rect width="18" height="16" fill="white" />
        </clipPath>
    </defs>
</svg>